RobotoExtremo-opsz144-wght900-wdth25-GRAD1.ufo
<glyph name="exclam" format="2">
  <advance width="520"/>
  <unicode hex="0021"/>
  <outline>
    <contour>
      <point x="-42.68" y="251.82" type="qcurve" smooth="yes"/>
      <point x="-42.68" y="361.14"/>
      <point x="112.66" y="516.62"/>
      <point x="256.0" y="516.62" type="qcurve" smooth="yes"/>
      <point x="405.32" y="516.62"/>
      <point x="562.68" y="361.14"/>
      <point x="562.68" y="251.82" type="qcurve" smooth="yes"/>
      <point x="562.68" y="143.48000000000002"/>
      <point x="407.32" y="-12.0"/>
      <point x="260.0" y="-12.0" type="qcurve" smooth="yes"/>
      <point x="112.66" y="-12.0"/>
      <point x="-42.68" y="143.48000000000002"/>
    </contour>
    <contour>
      <point x="10.459999999999997" y="523.0200000000001" type="line"/>
      <point x="3.3599999999999968" y="1456.0" type="line"/>
      <point x="516.64" y="1456.0" type="line"/>
      <point x="508.52000000000004" y="523.0200000000001" type="line"/>
    </contour>
  </outline>
</glyph>
<glyph name="quotedbl" format="2">
  <advance width="887"/>
  <unicode hex="0022"/>
  <outline>
    <contour>
      <point x="85.42" y="919.24" type="line"/>
      <point x="68.34" y="1283.24" type="line"/>
      <point x="68.34" y="1456.0" type="line"/>
      <point x="417.17999999999995" y="1456.0" type="line"/>
      <point x="417.17999999999995" y="1283.24" type="line"/>
      <point x="401.12000000000006" y="919.24" type="line"/>
    </contour>
    <contour>
      <point x="486.9" y="919.24" type="line"/>
      <point x="469.82000000000005" y="1283.24" type="line"/>
      <point x="469.82000000000005" y="1456.0" type="line"/>
      <point x="817.6599999999999" y="1456.0" type="line"/>
      <point x="817.6599999999999" y="1283.24" type="line"/>
      <point x="801.6" y="919.24" type="line"/>
    </contour>
  </outline>
</glyph>
<glyph name="numbersign" format="2">
  <advance width="1119"/>
  <unicode hex="0023"/>
  <outline>
    <contour>
      <point x="75.4" y="-13.0" type="line"/>
      <point x="335.34" y="1469.02" type="line"/>
      <point x="641.54" y="1469.02" type="line"/>
      <point x="383.6" y="-12.98" type="line"/>
    </contour>
    <contour>
      <point x="482.4" y="-13.0" type="line"/>
      <point x="741.34" y="1469.02" type="line"/>
      <point x="1048.5400000000002" y="1469.02" type="line"/>
      <point x="789.6" y="-13.0" type="line"/>
    </contour>
    <contour>
      <point x="26.0" y="357.8" type="line"/>
      <point x="26.0" y="595.2" type="line"/>
      <point x="1062.0" y="595.2" type="line"/>
      <point x="1062.0" y="357.8" type="line"/>
    </contour>
    <contour>
      <point x="56.93999999999995" y="859.88" type="line"/>
      <point x="56.93999999999995" y="1097.22" type="line"/>
      <point x="1092.94" y="1097.22" type="line"/>
      <point x="1092.94" y="859.88" type="line"/>
    </contour>
  </outline>
</glyph>
<glyph name="parenright" format="2">
  <advance width="622"/>
  <unicode hex="0029"/>
  <outline>
    <contour>
      <point x="16.0" y="-436.0" type="qcurve"/>
      <point x="16.0" y="-200.03999999999996" type="line"/>
      <point x="106.58000000000001" y="-149.32"/>
      <point x="168.3" y="150.24"/>
      <point x="168.3" y="508.0" type="qcurve" smooth="yes"/>
      <point x="168.3" y="532.0" type="line" smooth="yes"/>
      <point x="168.3" y="889.4799999999999"/>
      <point x="106.46" y="1189.0400000000002"/>
      <point x="16.0" y="1240.02" type="qcurve"/>
      <point x="16.0" y="1476.0" type="line"/>
      <point x="259.12" y="1414.0400000000002"/>
      <point x="569.4200000000001" y="942.8400000000001"/>
      <point x="569.4200000000001" y="526.0" type="qcurve" smooth="yes"/>
      <point x="569.4200000000001" y="515.0" type="line" smooth="yes"/>
      <point x="569.4200000000001" y="96.82000000000001"/>
      <point x="259.42" y="-374.1"/>
    </contour>
  </outline>
</glyph>
<glyph name="period" format="2">
  <advance width="598"/>
  <unicode hex="002E"/>
  <outline>
    <contour>
      <point x="-0.9200000000000017" y="259.84" type="qcurve" smooth="yes"/>
      <point x="-0.9200000000000017" y="376.2"/>
      <point x="153.46" y="533.7"/>
      <point x="298.8" y="533.7" type="qcurve" smooth="yes"/>
      <point x="444.16" y="533.7"/>
      <point x="598.5200000000001" y="376.2"/>
      <point x="598.5200000000001" y="258.84" type="qcurve" smooth="yes"/>
      <point x="598.5200000000001" y="141.5"/>
      <point x="444.16" y="-16.0"/>
      <point x="298.8" y="-16.0" type="qcurve" smooth="yes"/>
      <point x="153.46" y="-16.0"/>
      <point x="-0.9200000000000017" y="145.5"/>
    </contour>
  </outline>
</glyph>
<glyph name="zero" format="2">
  <advance width="1008"/>
  <unicode hex="0030"/>
  <outline>
    <contour>
      <point x="9.480000000000002" y="509.4" type="qcurve" smooth="yes"/>
      <point x="9.480000000000002" y="943.6" type="line" smooth="yes"/>
      <point x="9.480000000000002" y="1228.24"/>
      <point x="276.76000000000005" y="1476.0"/>
      <point x="503.97999999999996" y="1476.0" type="qcurve" smooth="yes"/>
      <point x="730.26" y="1476.0"/>
      <point x="998.52" y="1238.24"/>
      <point x="998.52" y="943.6" type="qcurve" smooth="yes"/>
      <point x="998.52" y="509.4" type="line" smooth="yes"/>
      <point x="998.52" y="228.76000000000002"/>
      <point x="703.26" y="-20.0"/>
      <point x="503.97999999999996" y="-20.0" type="qcurve" smooth="yes"/>
      <point x="272.76000000000005" y="-20.0"/>
      <point x="9.480000000000002" y="231.76000000000002"/>
    </contour>
    <contour>
      <point x="490.96000000000004" y="387.4" type="line" smooth="yes"/>
      <point x="490.96000000000004" y="372.38"/>
      <point x="494.5" y="360.38"/>
      <point x="500.02000000000004" y="360.38" type="qcurve" smooth="yes"/>
      <point x="505.53999999999996" y="360.38"/>
      <point x="510.0799999999999" y="372.38"/>
      <point x="510.0799999999999" y="387.4" type="qcurve" smooth="yes"/>
      <point x="510.0799999999999" y="1053.6" type="line" smooth="yes"/>
      <point x="510.0799999999999" y="1066.6200000000001"/>
      <point x="505.53999999999996" y="1076.6200000000001"/>
      <point x="500.02000000000004" y="1076.6200000000001" type="qcurve" smooth="yes"/>
      <point x="495.5" y="1076.6200000000001"/>
      <point x="490.96000000000004" y="1066.6200000000001"/>
      <point x="490.96000000000004" y="1053.6" type="qcurve" smooth="yes"/>
    </contour>
  </outline>
</glyph>
<glyph name="nine" format="2">
  <advance width="1008"/>
  <unicode hex="0039"/>
  <outline>
    <contour>
      <point x="2.560000000000001" y="945.68" type="qcurve" smooth="yes"/>
      <point x="2.560000000000001" y="1189.82"/>
      <point x="278.58" y="1476.0"/>
      <point x="505.17999999999995" y="1476.0" type="qcurve" smooth="yes"/>
      <point x="736.74" y="1476.0"/>
      <point x="998.7599999999999" y="1214.0"/>
      <point x="998.7599999999999" y="907.0" type="qcurve" smooth="yes"/>
      <point x="998.7599999999999" y="812.0" type="line" smooth="yes"/>
      <point x="998.7599999999999" y="419.0"/>
      <point x="646.26" y="-20.0"/>
      <point x="227.06000000000003" y="-20.0" type="qcurve" smooth="yes"/>
      <point x="122.06" y="-20.0" type="line"/>
      <point x="122.06" y="401.38" type="line"/>
      <point x="152.06000000000003" y="401.38" type="line" smooth="yes"/>
      <point x="337.6" y="401.38"/>
      <point x="523.6" y="536.72"/>
      <point x="523.6" y="908.0" type="qcurve" smooth="yes"/>
      <point x="523.6" y="1060.0" type="line" smooth="yes"/>
      <point x="523.6" y="1078.32"/>
      <point x="517.0" y="1086.74"/>
      <point x="511.17999999999995" y="1086.74" type="qcurve" smooth="yes"/>
      <point x="505.36" y="1086.74"/>
      <point x="498.87999999999994" y="1072.24"/>
      <point x="498.87999999999994" y="917.7" type="qcurve" smooth="yes"/>
      <point x="498.87999999999994" y="805.14"/>
      <point x="503.36" y="786.4799999999999"/>
      <point x="510.17999999999995" y="786.4799999999999" type="qcurve" smooth="yes"/>
      <point x="519.2" y="786.4799999999999"/>
      <point x="523.4799999999999" y="811.14"/>
      <point x="523.4799999999999" y="860.68" type="qcurve"/>
      <point x="574.9" y="860.68" type="line"/>
      <point x="574.9" y="668.5600000000001"/>
      <point x="467.32" y="502.3"/>
      <point x="321.02" y="502.3" type="qcurve" smooth="yes"/>
      <point x="174.64000000000001" y="502.3"/>
      <point x="2.560000000000001" y="701.5600000000001"/>
    </contour>
  </outline>
</glyph>
<glyph name="colon" format="2">
  <advance width="396"/>
  <unicode hex="003A"/>
  <outline>
    <contour>
      <point x="2.320000000000002" y="168.82" type="qcurve" smooth="yes"/>
      <point x="2.320000000000002" y="246.14"/>
      <point x="103.66" y="350.62"/>
      <point x="198.0" y="350.62" type="qcurve" smooth="yes"/>
      <point x="293.32" y="350.62"/>
      <point x="394.67999999999995" y="246.14"/>
      <point x="394.67999999999995" y="167.82" type="qcurve" smooth="yes"/>
      <point x="394.67999999999995" y="87.48000000000002"/>
      <point x="292.32" y="-17.0"/>
      <point x="198.0" y="-17.0" type="qcurve" smooth="yes"/>
      <point x="103.66" y="-17.0"/>
      <point x="2.320000000000002" y="90.48000000000002"/>
    </contour>
    <contour>
      <point x="2.320000000000002" y="750.34" type="qcurve" smooth="yes"/>
      <point x="2.320000000000002" y="827.68"/>
      <point x="103.66" y="933.1599999999999"/>
      <point x="198.0" y="933.1599999999999" type="qcurve" smooth="yes"/>
      <point x="293.32" y="933.1599999999999"/>
      <point x="394.67999999999995" y="827.68"/>
      <point x="394.67999999999995" y="749.34" type="qcurve" smooth="yes"/>
      <point x="394.67999999999995" y="669.0200000000001"/>
      <point x="292.32" y="564.54"/>
      <point x="198.0" y="564.54" type="qcurve" smooth="yes"/>
      <point x="103.66" y="564.54"/>
      <point x="2.320000000000002" y="673.0200000000001"/>
    </contour>
  </outline>
</glyph>
<glyph name="greater" format="2">
  <advance width="636"/>
  <unicode hex="003E"/>
  <outline>
    <contour>
      <point x="24.0" y="127.92" type="line"/>
      <point x="24.0" y="492.76" type="line"/>
      <point x="308.5400000000001" y="680.14" type="line"/>
      <point x="24.0" y="861.5200000000001" type="line"/>
      <point x="24.0" y="1226.1599999999999" type="line"/>
      <point x="617.0" y="838.76" type="line"/>
      <point x="617.0" y="521.32" type="line"/>
    </contour>
  </outline>
</glyph>
<glyph name="A" format="2">
  <advance width="1040"/>
  <unicode hex="0041"/>
  <anchor x="519.0" y="1432.0" name="top"/>
  <outline>
    <contour>
      <point x="-10.66" y="0.0" type="line"/>
      <point x="195.32" y="1456.0" type="line"/>
      <point x="859.72" y="1456.0" type="line"/>
      <point x="1050.94" y="0.0" type="line"/>
      <point x="568.2" y="0.0" type="line"/>
      <point x="536.9" y="563.8399999999999" type="line" smooth="yes"/>
      <point x="534.9" y="603.8399999999999"/>
      <point x="523.9200000000001" y="794.8400000000001"/>
      <point x="521.9399999999999" y="802.8400000000001" type="qcurve"/>
      <point x="518.9399999999999" y="802.8400000000001" type="line"/>
      <point x="517.96" y="794.8400000000001"/>
      <point x="510.97999999999996" y="604.8400000000003"/>
      <point x="509.97999999999996" y="563.8399999999999" type="qcurve" smooth="yes"/>
      <point x="496.52000000000004" y="0.0" type="line"/>
    </contour>
    <contour>
      <point x="371.98" y="189.98000000000002" type="line"/>
      <point x="390.21999999999997" y="535.24" type="line"/>
      <point x="687.86" y="535.24" type="line"/>
      <point x="706.12" y="189.98000000000002" type="line"/>
    </contour>
  </outline>
</glyph>
<glyph name="C" format="2">
  <advance width="1043"/>
  <unicode hex="0043"/>
  <anchor x="537.0" y="0" name="bottom"/>
  <outline>
    <contour>
      <point x="5.6" y="605.0" type="qcurve" smooth="yes"/>
      <point x="5.6" y="843.0" type="line" smooth="yes"/>
      <point x="5.6" y="1158.0"/>
      <point x="274.02" y="1476.0"/>
      <point x="537.0600000000001" y="1476.0" type="qcurve" smooth="yes"/>
      <point x="790.0799999999999" y="1476.0"/>
      <point x="1037.2" y="1208.64"/>
      <point x="1037.42" y="966.44" type="qcurve" smooth="yes"/>
      <point x="1037.44" y="743.24" type="line"/>
      <point x="556.12" y="743.24" type="line"/>
      <point x="556.1" y="1037.44" type="line" smooth="yes"/>
      <point x="556.0" y="1055.22"/>
      <point x="549.4399999999999" y="1065.7"/>
      <point x="543.0600000000001" y="1065.7" type="qcurve" smooth="yes"/>
      <point x="536.5799999999999" y="1065.7"/>
      <point x="529.9" y="1051.3799999999999"/>
      <point x="529.9" y="1038.0" type="qcurve" smooth="yes"/>
      <point x="529.9" y="413.0" type="line" smooth="yes"/>
      <point x="529.9" y="393.62"/>
      <point x="533.5799999999999" y="378.3"/>
      <point x="543.0600000000001" y="378.3" type="qcurve" smooth="yes"/>
      <point x="554.4399999999999" y="378.3"/>
      <point x="556.26" y="396.8"/>
      <point x="556.12" y="406.52" type="qcurve" smooth="yes"/>
      <point x="556.12" y="692.76" type="line"/>
      <point x="1038.44" y="692.76" type="line"/>
      <point x="1038.44" y="538.5600000000001" type="line" smooth="yes"/>
      <point x="1038.8400000000001" y="267.34"/>
      <point x="780.0799999999999" y="-19.0"/>
      <point x="537.0600000000001" y="-19.0" type="qcurve" smooth="yes"/>
      <point x="291.02" y="-19.0"/>
      <point x="5.6" y="273.0"/>
    </contour>
  </outline>
</glyph>
<glyph name="I" format="2">
  <advance width="520"/>
  <unicode hex="0049"/>
  <outline>
    <contour>
      <point x="9.379999999999999" y="0.0" type="line"/>
      <point x="9.379999999999999" y="1456.0" type="line"/>
      <point x="510.62000000000006" y="1456.0" type="line"/>
      <point x="510.62000000000006" y="0.0" type="line"/>
    </contour>
  </outline>
</glyph>
<glyph name="O" format="2">
  <advance width="1072"/>
  <unicode hex="004F"/>
  <anchor x="535.0" y="1432.0" name="top"/>
  <outline>
    <contour>
      <point x="5.6" y="630.0" type="qcurve" smooth="yes"/>
      <point x="5.6" y="861.0" type="line" smooth="yes"/>
      <point x="5.6" y="1174.0"/>
      <point x="282.82" y="1478.0"/>
      <point x="533.9399999999999" y="1478.0" type="qcurve" smooth="yes"/>
      <point x="795.0600000000001" y="1478.0"/>
      <point x="1066.4" y="1175.0"/>
      <point x="1066.4" y="862.0" type="qcurve" smooth="yes"/>
      <point x="1066.4" y="630.0" type="line" smooth="yes"/>
      <point x="1066.4" y="315.0"/>
      <point x="792.0600000000001" y="-21.0"/>
      <point x="534.9399999999999" y="-21.0" type="qcurve" smooth="yes"/>
      <point x="285.82" y="-21.0"/>
      <point x="5.6" y="314.0"/>
    </contour>
    <contour>
      <point x="524.9" y="412.0" type="line" smooth="yes"/>
      <point x="524.9" y="390.62"/>
      <point x="528.4" y="378.3"/>
      <point x="535.9399999999999" y="378.3" type="qcurve" smooth="yes"/>
      <point x="543.5" y="378.3"/>
      <point x="548.12" y="391.62"/>
      <point x="548.12" y="412.0" type="qcurve" smooth="yes"/>
      <point x="548.12" y="1040.0" type="line" smooth="yes"/>
      <point x="548.12" y="1053.3799999999999"/>
      <point x="545.5" y="1067.7"/>
      <point x="536.9399999999999" y="1067.7" type="qcurve" smooth="yes"/>
      <point x="528.4" y="1067.7"/>
      <point x="524.9" y="1053.3799999999999"/>
      <point x="524.9" y="1040.0" type="qcurve" smooth="yes"/>
    </contour>
  </outline>
</glyph>
<glyph name="Q" format="2">
  <advance width="1076"/>
  <unicode hex="0051"/>
  <outline>
    <contour>
      <point x="5.6" y="626.0" type="qcurve" smooth="yes"/>
      <point x="5.6" y="871.0" type="line" smooth="yes"/>
      <point x="5.6" y="1194.0"/>
      <point x="282.84" y="1486.0"/>
      <point x="533.96" y="1486.0" type="qcurve" smooth="yes"/>
      <point x="795.0799999999999" y="1486.0"/>
      <point x="1066.36" y="1195.0"/>
      <point x="1066.36" y="872.0" type="qcurve" smooth="yes"/>
      <point x="1066.36" y="626.0" type="line" smooth="yes"/>
      <point x="1066.36" y="301.0"/>
      <point x="792.0799999999999" y="-13.0"/>
      <point x="534.96" y="-13.0" type="qcurve" smooth="yes"/>
      <point x="285.84" y="-13.0"/>
      <point x="5.6" y="300.0"/>
    </contour>
    <contour>
      <point x="524.9" y="420.0" type="line" smooth="yes"/>
      <point x="524.9" y="398.6"/>
      <point x="528.4200000000001" y="386.3"/>
      <point x="535.96" y="386.3" type="qcurve" smooth="yes"/>
      <point x="543.5200000000001" y="386.3"/>
      <point x="548.0799999999999" y="399.6"/>
      <point x="548.0799999999999" y="420.0" type="qcurve" smooth="yes"/>
      <point x="548.0799999999999" y="1048.0" type="line" smooth="yes"/>
      <point x="548.0799999999999" y="1061.4"/>
      <point x="545.5200000000001" y="1075.7"/>
      <point x="536.96" y="1075.7" type="qcurve" smooth="yes"/>
      <point x="528.4200000000001" y="1075.7"/>
      <point x="524.9" y="1061.4"/>
      <point x="524.9" y="1048.0" type="qcurve" smooth="yes"/>
    </contour>
    <contour>
      <point x="772.12" y="-148.98000000000002" type="line"/>
      <point x="517.1" y="107.8" type="line"/>
      <point x="795.9799999999999" y="409.03999999999996" type="line"/>
      <point x="1055.0" y="152.25999999999996" type="line"/>
    </contour>
  </outline>
</glyph>
<glyph name="X" format="2">
  <advance width="1064"/>
  <unicode hex="0058"/>
  <outline>
    <contour>
      <point x="-30.7" y="0.0" type="line"/>
      <point x="373.64" y="955.22" type="line"/>
      <point x="463.8" y="955.22" type="line"/>
      <point x="646.24" y="1456.0" type="line"/>
      <point x="1094.3400000000001" y="1456.0" type="line"/>
      <point x="703.4399999999999" y="513.0" type="line"/>
      <point x="612.3" y="513.0" type="line"/>
      <point x="446.78000000000003" y="0.0" type="line"/>
    </contour>
    <contour>
      <point x="-8.739999999999998" y="1456.0" type="line"/>
      <point x="494.9200000000001" y="1456.0" type="line"/>
      <point x="691.64" y="915.4" type="line"/>
      <point x="758.4200000000001" y="917.4" type="line"/>
      <point x="1071.7" y="-1.0" type="line"/>
      <point x="567.84" y="-1.0" type="line"/>
      <point x="393.36" y="576.5600000000001" type="line"/>
      <point x="334.58" y="576.5600000000001" type="line"/>
    </contour>
  </outline>
</glyph>
<glyph name="Y" format="2">
  <advance width="1065"/>
  <unicode hex="0059"/>
  <anchor x="535.0" y="1432.0" name="top"/>
  <outline>
    <contour>
      <point x="271.4" y="0.0" type="line"/>
      <point x="271.4" y="446.4799999999999" type="line"/>
      <point x="-33.8" y="1456.0" type="line"/>
      <point x="480.74" y="1456.0" type="line"/>
      <point x="552.1" y="917.78" type="line" smooth="yes"/>
      <point x="554.0799999999999" y="899.8"/>
      <point x="558.04" y="872.78"/>
      <point x="558.0200000000001" y="865.78" type="qcurve"/>
      <point x="559.0200000000001" y="865.78" type="line"/>
      <point x="559.0" y="872.78"/>
      <point x="560.9399999999999" y="900.78"/>
      <point x="562.9399999999999" y="916.78" type="qcurve" smooth="yes"/>
      <point x="628.46" y="1456.0" type="line"/>
      <point x="1097.44" y="1456.0" type="line"/>
      <point x="772.64" y="447.0799999999999" type="line"/>
      <point x="772.64" y="0.0" type="line"/>
    </contour>
  </outline>
</glyph>
<glyph name="bracketleft" format="2">
  <advance width="631"/>
  <unicode hex="005B"/>
  <outline>
    <contour>
      <point x="102.0" y="-310.0" type="line"/>
      <point x="102.0" y="1456.0" type="line"/>
      <point x="625.04" y="1456.0" type="line"/>
      <point x="625.04" y="1184.8799999999999" type="line"/>
      <point x="457.2" y="1184.8799999999999" type="line"/>
      <point x="457.2" y="-38.879999999999995" type="line"/>
      <point x="625.04" y="-38.879999999999995" type="line"/>
      <point x="625.04" y="-310.0" type="line"/>
    </contour>
  </outline>
</glyph>
<glyph name="bracketright" format="2">
  <advance width="631"/>
  <unicode hex="005D"/>
  <outline>
    <contour>
      <point x="529.0" y="-310.0" type="line"/>
      <point x="5.960000000000001" y="-310.0" type="line"/>
      <point x="5.960000000000001" y="-38.879999999999995" type="line"/>
      <point x="173.8" y="-38.879999999999995" type="line"/>
      <point x="173.8" y="1184.8799999999999" type="line"/>
      <point x="5.960000000000001" y="1184.8799999999999" type="line"/>
      <point x="5.960000000000001" y="1456.0" type="line"/>
      <point x="529.0" y="1456.0" type="line"/>
    </contour>
  </outline>
</glyph>
<glyph name="grave" format="2">
  <advance width="642"/>
  <unicode hex="0060"/>
  <anchor x="312.0" y="914.0" name="_top"/>
  <outline>
    <contour>
      <point x="188.58" y="1032.6200000000001" type="line"/>
      <point x="-28.040000000000003" y="1350.2" type="line"/>
      <point x="300.94" y="1422.8799999999999" type="line"/>
      <point x="476.44" y="1105.36" type="line"/>
    </contour>
  </outline>
</glyph>
<glyph name="a" format="2">
  <advance width="1003"/>
  <unicode hex="0061"/>
  <anchor x="503.0" y="914.0" name="top"/>
  <outline>
    <contour>
      <point x="-1.2999999999999998" y="274.0" type="qcurve" smooth="yes"/>
      <point x="-1.2999999999999998" y="414.16"/>
      <point x="184.2" y="576.34"/>
      <point x="443.08" y="576.34" type="qcurve" smooth="yes"/>
      <point x="503.24" y="576.34" type="line"/>
      <point x="503.24" y="644.0" type="line" smooth="yes"/>
      <point x="503.24" y="648.54"/>
      <point x="499.4200000000001" y="653.96"/>
      <point x="494.97999999999996" y="653.96" type="qcurve" smooth="yes"/>
      <point x="490.7" y="653.96"/>
      <point x="486.76" y="648.54"/>
      <point x="486.76" y="644.78" type="qcurve" smooth="yes"/>
      <point x="486.76" y="585.38" type="line"/>
      <point x="42.54" y="588.38" type="line"/>
      <point x="42.54" y="628.78" type="line" smooth="yes"/>
      <point x="38.54" y="782.04"/>
      <point x="303.21999999999997" y="946.0"/>
      <point x="522.16" y="946.0" type="qcurve" smooth="yes"/>
      <point x="733.1" y="946.0"/>
      <point x="999.44" y="786.0"/>
      <point x="999.44" y="599.0" type="qcurve" smooth="yes"/>
      <point x="999.44" y="97.0" type="line" smooth="yes"/>
      <point x="999.44" y="63.0"/>
      <point x="1005.62" y="25.9"/>
      <point x="1013.72" y="12.0" type="qcurve"/>
      <point x="1013.72" y="0.0" type="line"/>
      <point x="520.5" y="0.0" type="line"/>
      <point x="515.5600000000001" y="7.939999999999999"/>
      <point x="510.64" y="34.92"/>
      <point x="510.64" y="44.82" type="qcurve"/>
      <point x="484.82000000000005" y="22.940000000000005"/>
      <point x="365.42" y="-13.0"/>
      <point x="288.9" y="-13.0" type="qcurve" smooth="yes"/>
      <point x="174.1" y="-13.0"/>
      <point x="-1.2999999999999998" y="124.0"/>
    </contour>
    <contour>
      <point x="479.96000000000004" y="315.98" type="qcurve" smooth="yes"/>
      <point x="479.96000000000004" y="275.46000000000004"/>
      <point x="487.66" y="259.02"/>
      <point x="495.0799999999999" y="259.02" type="qcurve" smooth="yes"/>
      <point x="500.56" y="259.02"/>
      <point x="506.24" y="266.18"/>
      <point x="506.24" y="272.06" type="qcurve"/>
      <point x="506.24" y="376.34" type="line"/>
      <point x="499.02000000000004" y="376.34" type="line" smooth="yes"/>
      <point x="492.78" y="376.34"/>
      <point x="479.96000000000004" y="362.68"/>
    </contour>
  </outline>
</glyph>
<glyph name="e" format="2">
  <advance width="1013"/>
  <unicode hex="0065"/>
  <anchor x="510.0" y="914.0" name="top"/>
  <outline>
    <contour>
      <point x="3.7" y="445.0" type="qcurve" smooth="yes"/>
      <point x="3.7" y="505.0" type="line" smooth="yes"/>
      <point x="3.7" y="721.0"/>
      <point x="284.21999999999997" y="947.0"/>
      <point x="511.0799999999999" y="947.0" type="qcurve" smooth="yes"/>
      <point x="767.96" y="947.0"/>
      <point x="1000.38" y="688.0"/>
      <point x="1000.38" y="459.0" type="qcurve" smooth="yes"/>
      <point x="1000.38" y="409.3" type="line"/>
      <point x="277.64" y="409.3" type="line"/>
      <point x="277.64" y="517.34" type="line"/>
      <point x="540.22" y="517.34" type="line"/>
      <point x="540.22" y="558.5200000000001" type="line" smooth="yes"/>
      <point x="540.22" y="569.32"/>
      <point x="529.54" y="582.9"/>
      <point x="516.9200000000001" y="582.9" type="qcurve" smooth="yes"/>
      <point x="501.5799999999999" y="582.9"/>
      <point x="489.8" y="561.54"/>
      <point x="489.8" y="546.0" type="qcurve" smooth="yes"/>
      <point x="489.8" y="380.0" type="line" smooth="yes"/>
      <point x="489.8" y="361.46000000000004"/>
      <point x="505.76" y="341.3"/>
      <point x="521.9799999999999" y="341.3" type="qcurve" smooth="yes"/>
      <point x="535.5600000000001" y="341.3"/>
      <point x="550.36" y="369.26000000000005"/>
      <point x="552.3" y="404.12" type="qcurve"/>
      <point x="1011.3400000000001" y="374.21999999999997" type="line"/>
      <point x="986.32" y="178.74"/>
      <point x="752.86" y="-22.02"/>
      <point x="516.9799999999999" y="-22.02" type="qcurve" smooth="yes"/>
      <point x="284.2" y="-22.02"/>
      <point x="3.7" y="203.0"/>
    </contour>
  </outline>
</glyph>
<glyph name="j" format="2">
  <advance width="518"/>
  <unicode hex="006A"/>
  <outline>
    <contour>
      <point x="-208.0" y="-419.0" type="qcurve"/>
      <point x="-221.0" y="-33.819999999999986" type="line"/>
      <point x="-198.1" y="-38.819999999999986"/>
      <point x="-129.68" y="-45.819999999999986"/>
      <point x="-76.84" y="-45.819999999999986" type="qcurve" smooth="yes"/>
      <point x="-30.38" y="-45.819999999999986"/>
      <point x="13.620000000000001" y="2.179999999999998"/>
      <point x="13.620000000000001" y="76.18" type="qcurve" smooth="yes"/>
      <point x="13.620000000000001" y="914.0" type="line"/>
      <point x="511.82000000000005" y="914.0" type="line"/>
      <point x="511.82000000000005" y="-6.4" type="line" smooth="yes"/>
      <point x="511.82000000000005" y="-201.4"/>
      <point x="264.16" y="-441.0"/>
      <point x="38.1" y="-441.0" type="qcurve" smooth="yes"/>
      <point x="-55.72" y="-441.0"/>
      <point x="-163.11999999999998" y="-426.02"/>
    </contour>
    <contour>
      <point x="1.5599999999999938" y="1195.6200000000001" type="qcurve" smooth="yes"/>
      <point x="1.5599999999999938" y="1306.9"/>
      <point x="136.9" y="1456.3"/>
      <point x="264.21999999999997" y="1456.3" type="qcurve" smooth="yes"/>
      <point x="392.53999999999996" y="1456.3"/>
      <point x="524.88" y="1308.9"/>
      <point x="524.88" y="1195.6200000000001" type="qcurve" smooth="yes"/>
      <point x="524.88" y="1087.32"/>
      <point x="388.53999999999996" y="929.9200000000001"/>
      <point x="260.21999999999997" y="929.9200000000001" type="qcurve" smooth="yes"/>
      <point x="133.9" y="929.9200000000001"/>
      <point x="1.5599999999999938" y="1087.32"/>
    </contour>
  </outline>
</glyph>
<glyph name="m" format="2">
  <advance width="1518"/>
  <unicode hex="006D"/>
  <outline>
    <contour>
      <point x="7.6" y="0.0" type="line"/>
      <point x="7.6" y="914.0" type="line"/>
      <point x="492.84" y="914.0" type="line"/>
      <point x="492.82000000000005" y="832.3" type="line"/>
      <point x="492.82000000000005" y="832.3" type="line"/>
      <point x="510.62000000000006" y="862.24"/>
      <point x="642.66" y="938.0"/>
      <point x="754.4200000000001" y="938.0" type="qcurve" smooth="yes"/>
      <point x="856.36" y="938.0"/>
      <point x="972.5400000000001" y="866.8"/>
      <point x="1000.48" y="814.88" type="qcurve"/>
      <point x="1010.44" y="814.88" type="line"/>
      <point x="1033.14" y="863.82"/>
      <point x="1146.7" y="938.0"/>
      <point x="1252.58" y="938.0" type="qcurve" smooth="yes"/>
      <point x="1372.32" y="938.0"/>
      <point x="1512.4" y="818.54"/>
      <point x="1512.4" y="689.0200000000001" type="qcurve" smooth="yes"/>
      <point x="1512.4" y="0.0" type="line"/>
      <point x="1023.2" y="0.0" type="line"/>
      <point x="1023.2" y="565.0200000000001" type="line" smooth="yes"/>
      <point x="1023.2" y="569.86"/>
      <point x="1019.5400000000001" y="574.72"/>
      <point x="1014.0400000000001" y="574.72" type="qcurve" smooth="yes"/>
      <point x="1007.4200000000001" y="574.72"/>
      <point x="1004.44" y="564.88"/>
      <point x="1004.6" y="556.0200000000001" type="qcurve"/>
      <point x="1004.6" y="0.0" type="line"/>
      <point x="515.4" y="0.0" type="line"/>
      <point x="515.4" y="565.0200000000001" type="line" smooth="yes"/>
      <point x="515.4" y="569.86"/>
      <point x="511.56" y="574.72"/>
      <point x="506.03999999999996" y="574.72" type="qcurve" smooth="yes"/>
      <point x="499.44" y="574.72"/>
      <point x="496.66" y="564.88"/>
      <point x="496.8" y="556.0200000000001" type="qcurve"/>
      <point x="496.8" y="0.0" type="line"/>
    </contour>
  </outline>
</glyph>
<glyph name="p" format="2">
  <advance width="1004"/>
  <unicode hex="0070"/>
  <outline>
    <contour>
      <point x="7.6" y="-388.0" type="line"/>
      <point x="7.6" y="914.0" type="line"/>
      <point x="485.70000000000005" y="914.0" type="line"/>
      <point x="485.68" y="861.34" type="line"/>
      <point x="489.68000000000006" y="862.34" type="line"/>
      <point x="507.5" y="885.26"/>
      <point x="600.5799999999999" y="940.0"/>
      <point x="696.26" y="940.0" type="qcurve" smooth="yes"/>
      <point x="830.18" y="940.0"/>
      <point x="1000.3" y="724.0"/>
      <point x="1000.3" y="509.0" type="qcurve" smooth="yes"/>
      <point x="1000.3" y="445.0" type="line" smooth="yes"/>
      <point x="1000.3" y="211.0"/>
      <point x="822.38" y="-15.0"/>
      <point x="691.66" y="-15.0" type="qcurve" smooth="yes"/>
      <point x="617.0" y="-15.0"/>
      <point x="536.6199999999999" y="-7.260000000000002"/>
      <point x="492.8" y="11.659999999999993" type="qcurve"/>
      <point x="492.8" y="-388.0" type="line"/>
    </contour>
    <contour>
      <point x="492.8" y="364.88" type="line"/>
      <point x="492.66" y="358.03999999999996"/>
      <point x="498.74" y="352.34"/>
      <point x="506.24" y="352.34" type="qcurve" smooth="yes"/>
      <point x="512.5" y="352.34"/>
      <point x="518.04" y="356.16"/>
      <point x="518.04" y="363.0" type="qcurve" smooth="yes"/>
      <point x="518.04" y="549.0" type="line" smooth="yes"/>
      <point x="518.04" y="558.88"/>
      <point x="511.5" y="564.66"/>
      <point x="506.24" y="564.66" type="qcurve" smooth="yes"/>
      <point x="498.74" y="564.66"/>
      <point x="492.66" y="557.96"/>
      <point x="492.8" y="548.12" type="qcurve"/>
    </contour>
  </outline>
</glyph>
<glyph name="r" format="2">
  <advance width="657"/>
  <unicode hex="0072"/>
  <outline>
    <contour>
      <point x="7.6" y="0.0" type="line"/>
      <point x="7.6" y="914.0" type="line"/>
      <point x="484.84" y="914.0" type="line"/>
      <point x="484.81999999999994" y="834.4200000000001" type="line"/>
      <point x="485.82000000000005" y="834.4200000000001" type="line"/>
      <point x="497.61999999999995" y="871.26"/>
      <point x="560.4200000000001" y="934.0"/>
      <point x="601.0" y="934.0" type="qcurve" smooth="yes"/>
      <point x="623.9399999999999" y="934.0"/>
      <point x="651.8" y="929.0"/>
      <point x="656.78" y="925.0" type="qcurve"/>
      <point x="656.78" y="512.4" type="line"/>
      <point x="646.84" y="520.4"/>
      <point x="616.96" y="529.4"/>
      <point x="599.02" y="529.4" type="qcurve" smooth="yes"/>
      <point x="574.46" y="529.4"/>
      <point x="511.66" y="493.66"/>
      <point x="494.8" y="455.82000000000005" type="qcurve"/>
      <point x="496.8" y="0.0" type="line"/>
    </contour>
  </outline>
</glyph>
<glyph name="u" format="2">
  <advance width="1010"/>
  <unicode hex="0075"/>
  <anchor x="504.0" y="914.0" name="top"/>
  <outline>
    <contour>
      <point x="5.6" y="224.92" type="qcurve" smooth="yes"/>
      <point x="5.6" y="914.0" type="line"/>
      <point x="494.8" y="914.0" type="line"/>
      <point x="494.8" y="348.92" type="line" smooth="yes"/>
      <point x="494.76" y="344.12"/>
      <point x="498.53999999999996" y="339.28000000000003"/>
      <point x="503.9200000000001" y="339.28000000000003" type="qcurve" smooth="yes"/>
      <point x="510.44" y="339.28000000000003"/>
      <point x="513.38" y="349.08"/>
      <point x="513.2" y="357.92" type="qcurve"/>
      <point x="513.2" y="914.0" type="line"/>
      <point x="1002.4" y="914.0" type="line"/>
      <point x="1002.4" y="0.0" type="line"/>
      <point x="517.16" y="0.0" type="line"/>
      <point x="517.18" y="78.64" type="line"/>
      <point x="514.18" y="78.64" type="line"/>
      <point x="500.44" y="53.720000000000006"/>
      <point x="378.2" y="-24.0"/>
      <point x="265.53999999999996" y="-24.0" type="qcurve" smooth="yes"/>
      <point x="148.74" y="-24.0"/>
      <point x="5.6" y="95.41999999999999"/>
    </contour>
  </outline>
</glyph>
<glyph name="w" format="2">
  <advance width="1273"/>
  <unicode hex="0077"/>
  <outline>
    <contour>
      <point x="-10.4" y="914.0" type="line"/>
      <point x="388.94" y="914.0" type="line"/>
      <point x="432.17999999999995" y="559.72" type="line" smooth="yes"/>
      <point x="434.14" y="544.72"/>
      <point x="441.03999999999996" y="505.72"/>
      <point x="441.03999999999996" y="504.72" type="qcurve"/>
      <point x="441.03999999999996" y="504.72" type="line"/>
      <point x="441.06" y="505.72"/>
      <point x="446.96000000000004" y="544.72"/>
      <point x="447.94" y="559.72" type="qcurve" smooth="yes"/>
      <point x="478.02000000000004" y="914.0" type="line"/>
      <point x="819.98" y="914.0" type="line"/>
      <point x="850.28" y="559.72" type="line" smooth="yes"/>
      <point x="851.28" y="544.72"/>
      <point x="857.1599999999999" y="505.72"/>
      <point x="857.18" y="504.72" type="qcurve"/>
      <point x="857.18" y="504.72" type="line"/>
      <point x="857.18" y="505.72"/>
      <point x="865.0400000000001" y="544.72"/>
      <point x="866.0400000000001" y="559.72" type="qcurve" smooth="yes"/>
      <point x="899.4599999999999" y="914.0" type="line"/>
      <point x="1283.52" y="914.0" type="line"/>
      <point x="1118.1200000000001" y="0.0" type="line"/>
      <point x="665.0" y="0.0" type="line"/>
      <point x="634.76" y="339.44" type="line" smooth="yes"/>
      <point x="633.76" y="347.44"/>
      <point x="631.9" y="368.44"/>
      <point x="631.9399999999999" y="371.44" type="qcurve"/>
      <point x="631.96" y="371.44" type="line"/>
      <point x="632.0" y="368.44"/>
      <point x="629.0799999999999" y="347.44"/>
      <point x="629.12" y="339.44" type="qcurve" smooth="yes"/>
      <point x="610.28" y="0.0" type="line"/>
      <point x="155.0" y="0.0" type="line"/>
    </contour>
  </outline>
</glyph>
<glyph name="y" format="2">
  <advance width="938"/>
  <unicode hex="0079"/>
  <anchor x="498.0" y="914.0" name="top"/>
  <outline>
    <contour>
      <point x="-117.01999999999998" y="-394.0" type="qcurve"/>
      <point x="-75.01999999999997" y="-52.88000000000001" type="line"/>
      <point x="-44.08" y="-63.88000000000001"/>
      <point x="34.82" y="-80.88000000000001"/>
      <point x="95.75999999999999" y="-80.88000000000001" type="qcurve" smooth="yes"/>
      <point x="166.62" y="-80.88000000000001"/>
      <point x="212.1" y="-28.2"/>
      <point x="211.64" y="-0.8800000000000008" type="qcurve"/>
      <point x="211.1" y="11.1" type="line"/>
      <point x="-10.8" y="914.0" type="line"/>
      <point x="443.53999999999996" y="914.0" type="line"/>
      <point x="486.03999999999996" y="659.1" type="line" smooth="yes"/>
      <point x="490.02000000000004" y="634.12"/>
      <point x="497.9" y="581.1"/>
      <point x="498.9" y="564.1" type="qcurve"/>
      <point x="499.87999999999994" y="564.1" type="line"/>
      <point x="499.87999999999994" y="580.1"/>
      <point x="506.78" y="633.1"/>
      <point x="510.76" y="658.1" type="qcurve" smooth="yes"/>
      <point x="548.26" y="914.0" type="line"/>
      <point x="948.32" y="914.0" type="line"/>
      <point x="761.6" y="72.0" type="line" smooth="yes"/>
      <point x="698.72" y="-213.08"/>
      <point x="445.96000000000004" y="-442.0"/>
      <point x="220.82" y="-442.0" type="qcurve" smooth="yes"/>
      <point x="89.86" y="-442.0"/>
      <point x="-75.05999999999999" y="-412.02"/>
    </contour>
  </outline>
</glyph>
<glyph name="bar" format="2">
  <advance width="554"/>
  <unicode hex="007C"/>
  <outline>
    <contour>
      <point x="79.6" y="-416.0" type="line"/>
      <point x="79.6" y="1456.0" type="line"/>
      <point x="474.44" y="1456.0" type="line"/>
      <point x="474.44" y="-416.0" type="line"/>
    </contour>
  </outline>
</glyph>
<glyph name="braceright" format="2">
  <advance width="687"/>
  <unicode hex="007D"/>
  <outline>
    <contour>
      <point x="29.0" y="-313.0" type="qcurve"/>
      <point x="29.0" y="-44.940000000000005" type="line"/>
      <point x="130.6" y="-44.940000000000005"/>
      <point x="215.22" y="53.48"/>
      <point x="194.24" y="150.66" type="qcurve" smooth="yes"/>
      <point x="150.24" y="333.0" type="line" smooth="yes"/>
      <point x="129.26" y="417.02"/>
      <point x="190.56000000000003" y="542.8"/>
      <point x="283.62" y="573.0" type="qcurve"/>
      <point x="190.56000000000003" y="603.2"/>
      <point x="129.26" y="728.9799999999999"/>
      <point x="150.24" y="813.0" type="qcurve" smooth="yes"/>
      <point x="194.24" y="994.3400000000001" type="line" smooth="yes"/>
      <point x="215.22" y="1092.52"/>
      <point x="130.6" y="1190.94"/>
      <point x="29.0" y="1190.94" type="qcurve"/>
      <point x="29.0" y="1459.0" type="line"/>
      <point x="389.47999999999996" y="1471.0"/>
      <point x="586.4799999999999" y="1234.32"/>
      <point x="539.4200000000001" y="1038.8" type="qcurve" smooth="yes"/>
      <point x="495.4200000000001" y="845.46" type="line" smooth="yes"/>
      <point x="478.46000000000004" y="764.4799999999999"/>
      <point x="559.82" y="717.46"/>
      <point x="653.14" y="717.46" type="qcurve"/>
      <point x="653.14" y="427.53999999999996" type="line"/>
      <point x="559.82" y="427.53999999999996"/>
      <point x="478.46000000000004" y="380.52"/>
      <point x="495.4200000000001" y="300.53999999999996" type="qcurve" smooth="yes"/>
      <point x="539.4200000000001" y="106.2" type="line" smooth="yes"/>
      <point x="584.4799999999999" y="-83.32"/>
      <point x="389.47999999999996" y="-319.0"/>
    </contour>
  </outline>
</glyph>
